<svg xmlns="http://www.w3.org/2000/svg" width="1024" height="1024" viewBox="0 0 270.933 270.933"><path d="M136.912 6.117C76.143 4.56 19.049 51.933 8.224 111.569-2.26 162.83 21.151 219.05 65.468 247.109c45.768 30.165 110.46 27.528 153.017-7.324 39.912-31.422 58.848-86.932 45.336-136.071-13.466-52.775-62.55-94.288-117.155-97.367a107 107 0 0 0-9.754-.23" style="baseline-shift:baseline;display:inline;overflow:visible;vector-effect:none;stop-color:#000;stop-opacity:1"/><path d="M177.859 137.926c9.493.56 8.978 26.323 18.184 10.098 4.663-13.302 29.45-12.014 21.689 4.28-4.25 10.391-23.536 14.818-15.906 28.204 10.14 8.91 3.486 29.662-10.87 21.706-2.049-7.378-9.285-18.468-15.435-7.104-3.913 14.847-30.785 8.816-19.86-6.516 7.906-8.906 24.233-18.383 13.142-31.682-5.118-7.916-1.113-18.878 9.056-18.986" style="baseline-shift:baseline;display:inline;overflow:visible;vector-effect:none;stop-color:#000;stop-opacity:1;fill:#fff"/><path d="M104.283 55.837c28.966-2.718 57.494 18.305 63.814 46.649 6.71 28.065-6.768 58.865-31.45 73.593-29.026 20.177-72.97 10.301-92.716-18.28-9.447-11.393 4.548-27.45 17.073-20.331 8.102 8.235 7.971-13.795 11.205-19.95-.074-10.602-11.934-20.521-7.34-32.53 2.999-18.096 22.27-28.995 39.414-29.151" style="baseline-shift:baseline;display:inline;overflow:visible;vector-effect:none;stop-color:#000;stop-opacity:1;fill:#fff"/><path d="M107.451 82.197C96.407 78.862 80.94 98.594 97.991 99.4c8.97-4.423 27.411-21.836 30.121-2.269-2.818 13.475-16.454 20.35-28.13 24.947-5.97 9.925-5.93 23.315-9.798 34.636 11.95 8.727 36.369-.956 44.932-15.058 12.73-17.293 8.893-45.49-10.97-55.792-5.054-3.185-10.97-3.27-16.695-3.668" style="baseline-shift:baseline;display:inline;overflow:visible;vector-effect:none;stop-color:#000;stop-opacity:1"/><path d="M221.914 171.046c13.247-.16 15.351 21.369 2.106 23.68-14.181 3.046-20.451-19.544-5.858-23.102a13 13 0 0 1 3.752-.578" style="baseline-shift:baseline;display:inline;overflow:visible;vector-effect:none;stop-color:#000;stop-opacity:1;fill:#fff"/></svg>